<svg width="52" height="47" fill="none" xmlns="http://www.w3.org/2000/svg"><path fill-rule="evenodd" clip-rule="evenodd" d="M39.508 25.342v9.8H12.402v-9.8c-4.404 0-7.793-3.378-7.793-7.771s3.389-7.772 7.793-7.772c3.05 0 5.76 1.69 7.116 4.393l3.388-1.69c-1.017-1.69-2.033-3.379-3.727-4.392 1.355-2.366 3.727-4.055 6.776-4.055 4.405 0 7.793 3.379 7.793 7.771 0 1.352-.339 2.704-1.016 4.055l3.388 2.028a11.645 11.645 0 0 0 1.694-6.082v-1.69c.678-.338 1.355-.338 2.033-.338 4.405 0 7.793 3.38 7.793 7.772s-3.727 7.771-8.132 7.771Zm0 17.571H12.402v-3.717h27.106v3.717Zm0-36.83c-1.016 0-2.033.337-3.388.337C34.087 2.703 30.36 0 25.955 0c-4.404 0-8.47 2.365-10.164 6.42-1.017-.338-2.033-.338-3.389-.338-6.437 0-11.52 5.069-11.52 11.489 0 5.068 3.389 9.46 7.793 10.813v17.908h34.9v-17.57c4.404-1.69 7.792-5.745 7.792-10.813 0-6.42-5.421-11.827-11.859-11.827Zm-17.28 25.004h-3.727v-7.434h3.727v7.434Zm11.52 0h-3.727v-7.434h3.727v7.434Z" fill="#D04F4F"/></svg>